<?xml version="1.0" encoding="UTF-8" standalone="no"?>
<!DOCTYPE svg PUBLIC "-//W3C//DTD SVG 1.1//EN" "http://www.w3.org/Graphics/SVG/1.1/DTD/svg11.dtd">
<svg width="100%" height="100%" viewBox="0 0 480 480" version="1.1" xmlns="http://www.w3.org/2000/svg" xmlns:xlink="http://www.w3.org/1999/xlink" xml:space="preserve" xmlns:serif="http://www.serif.com/" style="fill-rule:evenodd;clip-rule:evenodd;stroke-linejoin:round;stroke-miterlimit:2;">
    <g transform="matrix(1,0,0,1,-109,-40)">
        <path d="M350,46.668C221.29,46.668 116.67,151.288 116.67,279.998C116.67,408.708 221.29,513.328 350,513.328C478.61,513.328 583.33,408.708 583.33,279.998C583.33,151.288 478.61,46.668 350,46.668ZM344.027,169.028C322.375,169.028 304.734,186.669 304.734,208.415L304.734,265.349L325.453,265.349C330.68,265.349 334.785,269.548 334.785,274.681C334.785,279.814 330.68,284.013 325.453,284.013L304.734,284.013L304.734,400.303C304.734,405.436 300.535,409.635 295.402,409.635C290.27,409.635 286.07,405.436 286.07,400.303L286.07,284.013L265.351,284.013C260.219,284.013 256.019,279.814 256.019,274.681C256.019,269.548 260.219,265.349 265.351,265.349L286.07,265.349L286.07,208.415C286.07,176.403 312.109,150.36 344.031,150.36L360.832,150.36C366.059,150.36 370.164,154.559 370.164,159.692C370.164,164.919 366.059,169.024 360.832,169.024L344.027,169.028ZM442.308,395.078C445.203,399.277 444.082,405.066 439.789,407.957C438.203,409.078 436.336,409.637 434.562,409.637C431.574,409.637 428.59,408.145 426.816,405.531L400.777,366.984L374.738,405.531C372.965,408.145 370.07,409.637 367.086,409.637C365.219,409.637 363.445,409.078 361.859,407.957C357.558,405.063 356.441,399.277 359.332,395.078L389.57,350.371L359.332,305.57C356.437,301.277 357.559,295.492 361.851,292.597C366.051,289.703 371.929,290.824 374.73,295.116L400.773,333.664L426.812,295.116C429.707,290.823 435.492,289.702 439.785,292.597C444.078,295.491 445.2,301.277 442.305,305.57L412.063,350.371L442.308,395.078Z" style="fill-rule:nonzero;"/>
        <g id="m">
        </g>
        <g id="d">
        </g>
        <g id="b">
        </g>
        <g id="c">
        </g>
        <g id="a">
        </g>
        <g id="b1" serif:id="b">
        </g>
        <g id="i">
        </g>
        <g id="h">
        </g>
        <g id="g">
        </g>
        <g id="f">
        </g>
        <g id="b2" serif:id="b">
        </g>
        <g id="l">
        </g>
        <g id="a1" serif:id="a">
        </g>
        <g id="k">
        </g>
        <g id="d1" serif:id="d">
        </g>
        <g id="j">
        </g>
        <g id="a2" serif:id="a">
        </g>
        <g id="c1" serif:id="c">
        </g>
        <g id="e">
        </g>
        <g id="e1" serif:id="e">
        </g>
    </g>
</svg>
